<svg width="126" height="26" viewBox="0 0 126 26" fill="none" xmlns="http://www.w3.org/2000/svg">
<path d="M9.15701 1.84491C9.74327 1.84491 10.2708 1.96576 10.7398 2.20746C11.2255 2.42902 11.6693 2.68079 12.0713 2.96277C12.49 3.24475 12.8836 3.50659 13.252 3.74829C13.6204 3.96985 13.9973 4.08062 14.3825 4.08062C14.684 4.06049 15.0273 4.01013 15.4125 3.92956C15.7475 3.849 16.1327 3.72815 16.5681 3.56702C17.0203 3.38574 17.5228 3.1239 18.0755 2.7815C17.5228 3.42603 17.0706 3.96985 16.7189 4.41296C16.3839 4.83594 16.1243 5.18842 15.9401 5.4704C15.7223 5.79266 15.5633 6.04443 15.4628 6.22571C15.3623 6.44726 15.2116 6.7796 15.0106 7.22271C14.8263 7.62554 14.5751 8.16937 14.2569 8.85418C13.9387 9.51886 13.5367 10.3951 13.0511 11.4827C13.0511 10.0929 12.9338 9.01532 12.6993 8.24994C12.4816 7.48456 12.2387 6.90045 11.9707 6.49762C11.6525 6.03436 11.2924 5.74231 10.8905 5.62146C10.522 5.56103 10.1536 5.6416 9.78507 5.86316C9.41663 6.06458 9.04818 6.3667 8.67974 6.76953C8.32801 7.17236 7.98465 7.65576 7.6497 8.21973C7.33148 8.76355 7.03838 9.33758 6.77041 9.94183C6.51919 10.5461 6.30983 11.1604 6.14235 11.7848C5.97487 12.3891 5.86601 12.953 5.81576 13.4767C5.76551 13.94 5.75714 14.4838 5.79064 15.1081C5.82413 15.7124 5.8995 16.3368 6.01674 16.9813C6.13398 17.6057 6.28471 18.22 6.46894 18.8242C6.65318 19.4286 6.87927 19.9724 7.14725 20.4558C7.43197 20.919 7.75018 21.3017 8.10192 21.6038C8.45364 21.8858 8.8556 22.0167 9.30779 21.9966C9.81022 21.9563 10.3043 21.775 10.79 21.4527C11.2087 21.1909 11.6358 20.7881 12.0713 20.2443C12.5067 19.6803 12.8836 18.8847 13.2018 17.8574L16.9199 18.6732C15.848 20.2443 14.8012 21.4226 13.7796 22.208C12.7746 22.9936 11.8703 23.5474 11.0663 23.8697C10.1284 24.2323 9.24076 24.4035 8.4034 24.3834C7.34823 24.2423 6.36008 23.8597 5.43892 23.2353C4.51777 22.6109 3.72222 21.8556 3.05229 20.9693C2.3991 20.063 1.88828 19.076 1.51982 18.0085C1.15136 16.941 0.992246 15.8937 1.04249 14.8665C1.07599 14.1816 1.19323 13.386 1.39421 12.4796C1.59518 11.5532 1.86316 10.6065 2.19812 9.63967C2.54984 8.67291 2.96855 7.72625 3.45425 6.79975C3.93995 5.87323 4.47589 5.04742 5.06209 4.32232C5.64828 3.57709 6.28471 2.98291 6.97139 2.53979C7.67482 2.07654 8.4034 1.84491 9.15701 1.84491ZM17.5284 10.667L22.1509 10.7274C21.8829 11.956 21.682 13.0033 21.548 13.8694C21.4307 14.7355 21.3554 15.4606 21.3219 16.0448C21.2549 16.7094 21.2382 17.2734 21.2717 17.7366C21.3219 18.1596 21.4057 18.6127 21.5229 19.0962C21.6234 19.499 21.7741 19.9623 21.975 20.4859C22.1761 21.0096 22.444 21.5333 22.779 22.057C22.578 21.9764 22.3603 21.916 22.1258 21.8757C21.8914 21.8354 21.6736 21.8052 21.4726 21.7851C21.2382 21.7649 21.0037 21.7649 20.7692 21.7851C20.5347 21.8052 20.2751 21.8354 19.9904 21.8757C19.7559 21.916 19.4712 21.9664 19.1363 22.0268C18.8013 22.0872 18.4495 22.1678 18.0811 22.2685C18.3323 21.3621 18.5249 20.5766 18.6589 19.9119C18.8097 19.2472 18.9185 18.6934 18.9855 18.2503C19.0525 17.7266 19.0944 17.3036 19.1111 16.9813C19.1111 16.5785 19.1111 16.1253 19.1111 15.6218C19.1111 15.0981 19.1111 14.5946 19.1111 14.1112C19.1111 13.6278 19.1027 13.2048 19.086 12.8422C19.0692 12.4595 19.0358 12.2178 18.9855 12.1172L18.7343 11.815C18.6338 11.7143 18.483 11.5733 18.2821 11.392C18.0979 11.1906 17.8466 10.9489 17.5284 10.667ZM19.3121 6.01422C19.6638 5.79266 20.0156 5.73224 20.3672 5.83295C20.7357 5.93365 21.0204 6.125 21.2214 6.40698C21.4224 6.68896 21.4894 7.0213 21.4224 7.40399C21.3721 7.78668 21.1042 8.1593 20.6185 8.52185C20.1328 8.86426 19.7057 8.9851 19.3372 8.8844C18.9688 8.78369 18.7091 8.57221 18.5584 8.24994C18.4077 7.92768 18.3826 7.55505 18.483 7.13208C18.5836 6.68896 18.8599 6.31635 19.3121 6.01422ZM24.8195 20.8485C24.9368 20.1839 25.0205 19.5997 25.0707 19.0962C25.1377 18.5725 25.1879 18.1395 25.2215 17.797C25.255 17.3942 25.2717 17.0518 25.2717 16.7698C25.255 16.4274 25.2382 16.0246 25.2215 15.5614C25.2215 15.078 25.2047 14.6046 25.1712 14.1413C25.1545 13.6579 25.1293 13.2349 25.0958 12.8725C25.0624 12.4897 25.0205 12.2178 24.9702 12.0567C24.9032 11.8955 24.8111 11.7243 24.6939 11.5431C24.4594 11.2006 24.116 10.8683 23.6639 10.5461C24.0491 10.4453 24.3757 10.3648 24.6436 10.3044C24.9284 10.2238 25.1629 10.1533 25.3471 10.0929C25.548 10.0123 25.7239 9.94183 25.8747 9.88141C26.0086 9.821 26.1677 9.76058 26.3519 9.70017C26.5027 9.65987 26.6869 9.60951 26.9047 9.54907C27.1224 9.48864 27.3736 9.41815 27.6584 9.33758L27.583 12.0869C28.1189 11.3216 28.6632 10.7475 29.216 10.3648C29.7686 9.98213 30.2879 9.71022 30.7735 9.54907C31.3262 9.34765 31.8705 9.24694 32.4065 9.24694C33.0764 9.28723 33.6961 9.41815 34.2656 9.63967C34.8518 9.8613 35.3542 10.1231 35.7729 10.4252C36.2083 10.7072 36.5601 11.0093 36.828 11.3316C37.096 11.6539 37.2551 11.9358 37.3054 12.1776C37.5063 12.963 37.5566 13.6882 37.4561 14.3528C37.3556 14.9974 37.2216 15.6318 37.0541 16.2563C36.9034 16.8605 36.7694 17.4647 36.6522 18.0689C36.5517 18.6732 36.5936 19.3278 36.7778 20.0328C36.8448 20.214 36.9118 20.3953 36.9787 20.5766C37.0458 20.7377 37.1295 20.8989 37.23 21.06C37.3305 21.2211 37.4477 21.3521 37.5817 21.4527C37.3975 21.4326 37.2133 21.4226 37.029 21.4226C36.8448 21.4024 36.6773 21.3823 36.5265 21.3621C36.3423 21.3419 36.1748 21.3218 36.0241 21.3017C35.8566 21.2815 35.6305 21.2715 35.3458 21.2715C34.8601 21.2715 34.1064 21.3017 33.0848 21.3621C33.2356 20.9392 33.3527 20.5866 33.4365 20.3047C33.537 20.0025 33.6207 19.7609 33.6877 19.5795C33.7547 19.358 33.8049 19.1868 33.8385 19.066C34.0395 18.4819 34.1567 17.8172 34.1902 17.072C34.2404 16.3267 34.1985 15.5714 34.0646 14.8061C34.0143 14.5442 33.9306 14.232 33.8133 13.8694C33.6961 13.5069 33.537 13.1544 33.336 12.812C33.1518 12.4696 32.9257 12.1776 32.6577 11.9358C32.4065 11.6942 32.1134 11.5532 31.7784 11.5128C31.4434 11.4726 31.0666 11.5733 30.6479 11.815C30.246 12.0567 29.8105 12.4998 29.3415 13.1444C28.9898 13.6882 28.7135 14.3528 28.5125 15.1384C28.3283 15.803 28.2027 16.6389 28.1356 17.6459C28.0687 18.6329 28.1692 19.791 28.4371 21.1204C28.2027 21.0801 27.9849 21.06 27.784 21.06C27.583 21.0399 27.4155 21.0197 27.2815 20.9996C27.114 20.9795 26.9633 20.9593 26.8293 20.9392C26.6786 20.9392 26.5111 20.9291 26.3269 20.9089C26.1594 20.9089 25.95 20.9089 25.6988 20.9089C25.4475 20.8888 25.1545 20.8686 24.8195 20.8485ZM46.0033 19.3076C46.4723 19.3076 46.9077 19.2472 47.3097 19.1264C47.6446 19.0257 47.9628 18.8645 48.2643 18.643C48.5825 18.4013 48.7919 18.0488 48.8924 17.5855C49.2274 17.6661 49.5121 17.7366 49.7465 17.797C49.981 17.8373 50.182 17.8776 50.3495 17.9179C50.5337 17.9784 50.6928 18.0186 50.8268 18.0388C50.9608 18.0791 51.1199 18.1193 51.3041 18.1596C51.4716 18.1999 51.6726 18.2503 51.9071 18.3107C52.1583 18.351 52.4514 18.4114 52.7864 18.4919C52.5352 18.4517 52.2756 18.4819 52.0076 18.5826C51.7563 18.6833 51.5135 18.7941 51.2791 18.9149C51.0111 19.0559 50.7598 19.2271 50.5254 19.4285C50.3746 19.5494 50.1987 19.7306 49.9978 19.9724C49.8136 20.214 49.5456 20.4457 49.1939 20.6673C48.8422 20.8888 48.3732 21.0801 47.787 21.2412C47.2176 21.3823 46.4806 21.4326 45.5762 21.3923C44.4876 21.3521 43.5748 21.1204 42.8379 20.6974C42.101 20.2543 41.5064 19.7206 41.0542 19.0962C40.602 18.4517 40.2754 17.7568 40.0744 17.0116C39.8734 16.2663 39.7646 15.5714 39.7478 14.9269C39.7311 14.2824 39.8902 13.6076 40.2251 12.9026C40.5601 12.1977 41.0291 11.5532 41.632 10.969C42.2517 10.3849 42.997 9.91158 43.8679 9.54907C44.7388 9.16638 45.6934 8.97504 46.7319 8.97504C47.3348 8.97504 47.8875 9.06568 48.39 9.24694C48.9091 9.40808 49.3781 9.62962 49.7968 9.91158C50.2323 10.1936 50.6091 10.5159 50.9273 10.8784C51.2455 11.2208 51.5135 11.5733 51.7313 11.9358C51.949 12.3185 52.1332 12.7214 52.2839 13.1444C52.4179 13.5069 52.5268 13.9198 52.6105 14.3831C52.6942 14.8463 52.7194 15.3196 52.6859 15.803C51.413 15.8433 50.383 15.8736 49.5958 15.8937C48.8254 15.9138 48.2225 15.9238 47.787 15.9238H46.6565H45.8023C45.5009 15.9238 45.1073 15.934 44.6215 15.9541C44.1359 15.9742 43.5413 16.0045 42.8379 16.0448C42.9216 16.8504 43.131 17.4748 43.466 17.9179C43.8176 18.3408 44.1861 18.6631 44.5713 18.8847C45.0068 19.1264 45.4841 19.2674 46.0033 19.3076ZM43.7423 13.8694C44.2783 13.9097 44.7221 13.94 45.0738 13.9601C45.4423 13.9802 45.7437 14.0004 45.9782 14.0205C46.2294 14.0406 46.4304 14.0508 46.5811 14.0508H47.2092C47.6279 14.0508 48.4067 14.0205 49.5456 13.9601C49.4954 13.0738 49.3362 12.3991 49.0682 11.9358C48.817 11.4726 48.549 11.1302 48.2643 10.9086C47.9294 10.667 47.5609 10.5259 47.1589 10.4856C46.0703 10.5058 45.258 10.7777 44.7221 11.3014C44.2029 11.8251 43.8763 12.6811 43.7423 13.8694ZM63.0922 1.39172C63.9966 1.43201 64.9094 1.63342 65.8305 1.99597C66.7684 2.33838 67.631 2.90234 68.4181 3.68786C69.2053 4.45325 69.8752 5.45025 70.4279 6.67889C70.9806 7.88739 71.3239 9.3678 71.4579 11.1201C71.5752 12.5502 71.4245 13.9701 71.0057 15.38C70.6038 16.7698 70.0427 18.0488 69.3226 19.2171C68.6023 20.3853 67.7733 21.3823 66.8354 22.208C65.8975 23.0137 64.9596 23.5474 64.0217 23.8093C63.4522 23.9704 62.8242 23.9906 62.1375 23.8697C61.4676 23.7288 60.7809 23.477 60.0775 23.1144C59.3908 22.7317 58.7125 22.2483 58.0426 21.6642C57.3893 21.0801 56.7948 20.4155 56.2589 19.6702C55.7229 18.9048 55.2707 18.0791 54.9023 17.1928C54.5505 16.3066 54.3328 15.38 54.2491 14.4132C54.1653 13.6076 54.1569 12.7214 54.224 11.7546C54.3077 10.7676 54.4668 9.79075 54.7013 8.82397C54.9525 7.83704 55.2959 6.89038 55.7313 5.98401C56.1835 5.05749 56.7529 4.25183 57.4397 3.56702C58.1263 2.86206 58.9302 2.31823 59.8514 1.93555C60.7892 1.53271 61.8696 1.35144 63.0922 1.39172ZM58.5952 13.6278C58.3608 15.7829 58.5283 17.5151 59.0977 18.8242C59.6839 20.1335 60.5631 20.9291 61.7356 21.2111C62.305 21.3521 62.8493 21.2111 63.3685 20.7881C63.9044 20.345 64.3902 19.7105 64.8256 18.8847C65.2611 18.0589 65.6379 17.0921 65.9561 15.9843C66.2743 14.8765 66.5089 13.7183 66.6596 12.5099C66.8103 11.3014 66.8187 10.2137 66.6846 9.24694C66.5674 8.26001 66.3581 7.42413 66.0566 6.73931C65.7552 6.03436 65.3867 5.49054 64.9513 5.10785C64.5325 4.72515 64.0971 4.51367 63.6448 4.47338C62.8577 4.41296 62.171 4.66473 61.5848 5.2287C60.9986 5.77252 60.5045 6.48754 60.1026 7.37377C59.7006 8.26001 59.3741 9.25702 59.1228 10.3648C58.8883 11.4726 58.7125 12.5603 58.5952 13.6278ZM73.5239 20.8485C73.6411 20.1839 73.7247 19.5997 73.7747 19.0962C73.8419 18.5725 73.8919 18.1395 73.9255 17.797C73.9591 17.3942 73.9755 17.0518 73.9755 16.7698C73.9591 16.4274 73.9419 16.0246 73.9255 15.5614C73.9255 15.078 73.909 14.6046 73.8755 14.1413C73.8583 13.6579 73.8333 13.2349 73.7997 12.8725C73.7661 12.4897 73.7247 12.2178 73.6747 12.0567C73.6075 11.8955 73.5153 11.7243 73.3981 11.5431C73.1637 11.2006 72.82 10.8683 72.3677 10.5461C72.7528 10.4453 73.0794 10.3648 73.3474 10.3044C73.6325 10.2238 73.8669 10.1533 74.0512 10.0929C74.2521 10.0123 74.4278 9.94183 74.5786 9.88141C74.713 9.821 74.8716 9.76058 75.056 9.70017C75.2068 9.65987 75.3911 9.60951 75.6091 9.54907C75.8263 9.48864 76.0778 9.41815 76.3622 9.33758L76.2872 12.0869C76.8232 11.3216 77.367 10.7475 77.9201 10.3648C78.4724 9.98213 78.992 9.71022 79.4779 9.54907C80.0303 9.34765 80.5748 9.24694 81.1107 9.24694C81.7803 9.28723 82.3999 9.41815 82.9694 9.63967C83.5561 9.8613 84.0584 10.1231 84.4772 10.4252C84.9124 10.7072 85.264 11.0093 85.5319 11.3316C85.7999 11.6539 85.9592 11.9358 86.0093 12.1776C86.2101 12.963 86.2608 13.6882 86.1601 14.3528C86.06 14.9974 85.9257 15.6318 85.7585 16.2563C85.6077 16.8605 85.4733 17.4647 85.3561 18.0689C85.2561 18.6732 85.2975 19.3278 85.4819 20.0328C85.5491 20.214 85.6155 20.3953 85.6827 20.5766C85.7499 20.7377 85.8335 20.8989 85.9342 21.06C86.0343 21.2211 86.1515 21.3521 86.2858 21.4527C86.1015 21.4326 85.9171 21.4226 85.7327 21.4226C85.5491 21.4024 85.3811 21.3823 85.2304 21.3621C85.0467 21.3419 84.8788 21.3218 84.728 21.3017C84.5608 21.2815 84.3343 21.2715 84.0499 21.2715C83.5639 21.2715 82.8107 21.3017 81.7889 21.3621C81.9397 20.9392 82.0569 20.5866 82.1405 20.3047C82.2412 20.0025 82.3248 19.7609 82.392 19.5795C82.4585 19.358 82.5092 19.1868 82.5428 19.066C82.7436 18.4819 82.8608 17.8172 82.8944 17.072C82.9444 16.3267 82.9029 15.5714 82.7686 14.8061C82.7186 14.5442 82.635 14.232 82.517 13.8694C82.3999 13.5069 82.2412 13.1544 82.0404 12.812C81.856 12.4696 81.6295 12.1776 81.3616 11.9358C81.1107 11.6942 80.8177 11.5532 80.4826 11.5128C80.1475 11.4726 79.7709 11.5733 79.3521 11.815C78.9498 12.0567 78.5146 12.4998 78.0458 13.1444C77.6935 13.6882 77.4177 14.3528 77.2169 15.1384C77.0325 15.803 76.9068 16.6389 76.8396 17.6459C76.7724 18.6329 76.8732 19.791 77.1412 21.1204C76.9068 21.0801 76.6888 21.06 76.488 21.06C76.2872 21.0399 76.1193 21.0197 75.9857 20.9996C75.8184 20.9795 75.6677 20.9593 75.5333 20.9392C75.3825 20.9392 75.2153 20.9291 75.031 20.9089C74.8637 20.9089 74.6544 20.9089 74.4028 20.9089C74.1513 20.8888 73.8583 20.8686 73.5239 20.8485ZM94.7073 19.3076C95.1761 19.3076 95.612 19.2472 96.0136 19.1264C96.3487 19.0257 96.6667 18.8645 96.9683 18.643C97.2863 18.4013 97.4957 18.0488 97.5964 17.5855C97.9316 17.6661 98.216 17.7366 98.4504 17.797C98.6855 17.8373 98.8863 17.8776 99.0535 17.9179C99.2378 17.9784 99.3972 18.0186 99.5308 18.0388C99.6652 18.0791 99.8238 18.1193 100.008 18.1596C100.175 18.1999 100.377 18.2503 100.611 18.3107C100.862 18.351 101.156 18.4114 101.49 18.4919C101.239 18.4517 100.979 18.4819 100.711 18.5826C100.461 18.6833 100.218 18.7941 99.9832 18.9149C99.7152 19.0559 99.4637 19.2271 99.2293 19.4285C99.0785 19.5494 98.9027 19.7306 98.7019 19.9724C98.5175 20.214 98.2496 20.4457 97.898 20.6673C97.5464 20.8888 97.0776 21.0801 96.4909 21.2412C95.9214 21.3823 95.1847 21.4326 94.28 21.3923C93.1917 21.3521 92.2791 21.1204 91.5417 20.6974C90.8049 20.2543 90.2104 19.7206 89.758 19.0962C89.3057 18.4517 88.9791 17.7568 88.7783 17.0116C88.5775 16.2663 88.4689 15.5714 88.4518 14.9269C88.4353 14.2824 88.594 13.6076 88.9291 12.9026C89.2643 12.1977 89.733 11.5532 90.3361 10.969C90.9557 10.3849 91.701 9.91158 92.5721 9.54907C93.4432 9.16638 94.3979 8.97504 95.4362 8.97504C96.0386 8.97504 96.5917 9.06568 97.0941 9.24694C97.6136 9.40808 98.0823 9.62962 98.5011 9.91158C98.9363 10.1936 99.3129 10.5159 99.6316 10.8784C99.9496 11.2208 100.218 11.5733 100.435 11.9358C100.653 12.3185 100.837 12.7214 100.988 13.1444C101.122 13.5069 101.231 13.9198 101.314 14.3831C101.398 14.8463 101.424 15.3196 101.39 15.803C100.117 15.8433 99.0871 15.8736 98.2996 15.8937C97.5292 15.9138 96.9268 15.9238 96.4909 15.9238H95.3605H94.5065C94.2049 15.9238 93.8112 15.934 93.326 15.9541C92.8401 15.9742 92.2455 16.0045 91.5417 16.0448C91.626 16.8504 91.8354 17.4748 92.1698 17.9179C92.5214 18.3408 92.8901 18.6631 93.2753 18.8847C93.7112 19.1264 94.1885 19.2674 94.7073 19.3076ZM92.4463 13.8694C92.9823 13.9097 93.426 13.94 93.7776 13.9601C94.1464 13.9802 94.4479 14.0004 94.6823 14.0205C94.9338 14.0406 95.1346 14.0508 95.2854 14.0508H95.9135C96.3323 14.0508 97.1105 14.0205 98.2496 13.9601C98.1995 13.0738 98.0402 12.3991 97.7722 11.9358C97.5214 11.4726 97.2534 11.1302 96.9683 10.9086C96.6331 10.667 96.2651 10.5259 95.8628 10.4856C94.7745 10.5058 93.962 10.7777 93.426 11.3014C92.9072 11.8251 92.5807 12.6811 92.4463 13.8694ZM103.405 2.87213C103.723 3.15411 104.042 3.3656 104.36 3.50659C104.695 3.62744 104.997 3.70801 105.265 3.74829C105.566 3.80872 105.867 3.81879 106.169 3.7785C106.454 3.73822 106.747 3.61737 107.048 3.41596C107.349 3.21454 107.701 3.00305 108.103 2.7815C108.505 2.55993 108.974 2.36859 109.51 2.20746C110.063 2.02618 110.724 1.93555 111.495 1.93555C111.83 1.93555 112.181 2.01611 112.55 2.17725C112.935 2.33838 113.304 2.54986 113.655 2.8117C114.007 3.0534 114.325 3.32532 114.61 3.62744C114.912 3.92956 115.138 4.23169 115.288 4.53381C115.456 4.83594 115.573 5.32941 115.64 6.01422C115.707 6.67889 115.732 7.40399 115.716 8.18951C115.699 8.97504 115.64 9.75053 115.539 10.5159C115.456 11.2812 115.33 11.9057 115.163 12.3891C114.962 12.812 114.577 13.3559 114.007 14.0205C113.521 14.5845 112.793 15.3096 111.821 16.1958C110.85 17.082 109.544 18.1395 107.902 19.3681C108.873 19.3479 109.686 19.3178 110.339 19.2775C111.009 19.2171 111.553 19.1566 111.972 19.0962C112.458 19.0156 112.843 18.935 113.127 18.8545C113.379 18.7337 113.647 18.5625 113.931 18.3408C114.166 18.1395 114.417 17.8776 114.685 17.5554C114.97 17.2331 115.246 16.8101 115.514 16.2864C115.565 17.374 115.615 18.2301 115.665 18.8545C115.699 19.2171 115.724 19.5293 115.741 19.791C115.757 20.0328 115.774 20.3147 115.791 20.637C115.807 20.919 115.816 21.2412 115.816 21.6038C115.833 21.9664 115.858 22.349 115.891 22.7519C115.054 22.4901 114.291 22.2886 113.605 22.1476C112.918 21.9865 112.332 21.8757 111.846 21.8153C111.277 21.7348 110.766 21.6945 110.314 21.6945C109.845 21.7146 109.326 21.7649 108.756 21.8455C108.254 21.9261 107.651 22.0469 106.948 22.208C106.261 22.349 105.482 22.5605 104.611 22.8425C104.544 22.621 104.486 22.3994 104.435 22.1779C104.385 21.9361 104.343 21.7045 104.31 21.483C104.259 21.2412 104.218 20.9996 104.184 20.7578C104.151 20.5162 104.117 20.2846 104.084 20.063C104.05 19.8616 104.025 19.6501 104.008 19.4285C103.991 19.207 103.975 18.9955 103.958 18.7941C105.298 17.7669 106.387 16.8404 107.224 16.0145C108.062 15.1685 108.723 14.4535 109.209 13.8694C109.762 13.1846 110.18 12.5603 110.465 11.9962C110.749 11.3115 110.984 10.5561 111.168 9.73033C111.352 8.90454 111.411 8.13916 111.344 7.4342C111.294 6.72924 111.093 6.15521 110.741 5.7121C110.389 5.24884 109.828 5.04742 109.058 5.10785C108.555 5.14813 108.078 5.35962 107.626 5.74231C107.191 6.125 106.788 6.58825 106.42 7.13208C106.051 7.6759 105.725 8.26001 105.441 8.8844C105.155 9.48864 104.912 10.0627 104.712 10.6065C104.527 11.1504 104.376 11.6035 104.259 11.9661C104.159 12.3287 104.109 12.52 104.109 12.5401C104.092 12.5804 104.067 12.4293 104.033 12.0869C104.016 11.7445 103.991 11.3216 103.958 10.818C103.941 10.2943 103.916 9.75053 103.883 9.18652C103.849 8.62256 103.816 8.14923 103.782 7.76654C103.766 7.46441 103.74 7.07165 103.707 6.58825C103.657 5.80273 103.556 4.56402 103.405 2.87213ZM118.283 5.44018C118.87 5.21863 119.347 5.03735 119.715 4.89636C120.084 4.73523 120.386 4.60431 120.62 4.5036C120.888 4.38275 121.089 4.27197 121.223 4.17126L121.825 3.80872C122.06 3.66773 122.361 3.48645 122.73 3.2649C123.099 3.02319 123.576 2.72107 124.162 2.35852C124.028 3.1239 123.928 3.849 123.861 4.53381C123.811 5.19849 123.768 5.79266 123.735 6.31635C123.685 6.92059 123.66 7.47448 123.66 7.97803C123.643 8.401 123.618 8.96497 123.584 9.66992C123.568 10.3749 123.543 11.1402 123.509 11.9661C123.475 12.7919 123.442 13.6378 123.408 14.5039C123.375 15.37 123.35 16.1857 123.333 16.9511C123.333 17.6963 123.341 18.3408 123.358 18.8847C123.392 19.4286 123.45 19.8012 123.534 20.0025C123.618 20.2443 123.726 20.4759 123.861 20.6974C123.978 20.8989 124.112 21.1305 124.262 21.3923C124.43 21.6341 124.631 21.8757 124.865 22.1174C124.48 22.2182 124.12 22.3087 123.785 22.3894C123.45 22.4498 123.157 22.5001 122.906 22.5404C122.604 22.6008 122.336 22.6512 122.102 22.6914C121.85 22.7116 121.507 22.762 121.072 22.8425C120.704 22.9029 120.235 22.9835 119.665 23.0842C119.096 23.1648 118.393 23.2554 117.555 23.3562C117.99 23.0339 118.334 22.7217 118.585 22.4195C118.853 22.1174 119.054 21.8556 119.188 21.634C119.339 21.3722 119.431 21.1204 119.464 20.8787C119.481 20.7176 119.506 20.2846 119.539 19.5795C119.589 18.8545 119.632 18.0085 119.665 17.0417C119.715 16.0548 119.757 15.0074 119.791 13.8997C119.841 12.7717 119.875 11.7243 119.891 10.7575C119.908 9.79075 119.916 8.96497 119.916 8.28015C119.916 7.59534 119.891 7.18243 119.841 7.04144C119.774 6.90045 119.674 6.73931 119.539 6.55805C119.422 6.39691 119.263 6.22571 119.062 6.04443C118.878 5.86316 118.618 5.66174 118.283 5.44018Z" fill="#394BA7"/>
</svg>
