<svg width="54" height="54" viewBox="0 0 54 54" fill="none" xmlns="http://www.w3.org/2000/svg">
<ellipse cx="26.9756" cy="27" rx="26.9756" ry="27" fill="#1D4ED8" fill-opacity="0.2"/>
<g clip-path="url(#clip0_29260_1144)">
<path fill-rule="evenodd" clip-rule="evenodd" d="M27.2002 37C32.9992 37 37.7002 32.299 37.7002 26.5C37.7002 20.701 32.9992 16 27.2002 16C21.4012 16 16.7002 20.701 16.7002 26.5C16.7002 32.299 21.4012 37 27.2002 37ZM32.1618 24.2429C32.5463 23.8585 32.5463 23.2352 32.1618 22.8508C31.7774 22.4664 31.1542 22.4664 30.7698 22.8508L25.5596 28.061L23.6306 26.1321C23.2462 25.7476 22.6229 25.7476 22.2385 26.1321C21.8541 26.5165 21.8541 27.1398 22.2385 27.5242L24.8635 30.1491C25.2479 30.5336 25.8712 30.5336 26.2556 30.1491L32.1618 24.2429Z" fill="#1D4ED8"/>
</g>
<defs>
<clipPath id="clip0_29260_1144">
<rect width="21" height="21" fill="white" transform="translate(16.7002 16)"/>
</clipPath>
</defs>
</svg>
