<svg width="10" height="6" viewBox="0 0 10 6" fill="none" xmlns="http://www.w3.org/2000/svg">
<path d="M8.96742 0.982517C8.89804 0.912989 8.81562 0.857828 8.72489 0.820192C8.63416 0.782556 8.5369 0.763184 8.43867 0.763184C8.34045 0.763184 8.24318 0.782556 8.15245 0.820192C8.06172 0.857828 7.97931 0.912989 7.90992 0.982517L4.99992 3.89252L2.08992 0.982516C1.94969 0.842283 1.75949 0.763501 1.56117 0.763501C1.36285 0.763501 1.17266 0.842283 1.03242 0.982516C0.892189 1.12275 0.813408 1.31295 0.813408 1.51127C0.813408 1.70959 0.892189 1.89978 1.03242 2.04002L4.47492 5.48252C4.54431 5.55204 4.62672 5.6072 4.71745 5.64484C4.80818 5.68248 4.90545 5.70185 5.00367 5.70185C5.1019 5.70185 5.19916 5.68248 5.28989 5.64484C5.38062 5.6072 5.46304 5.55204 5.53242 5.48252L8.97492 2.04002C9.25992 1.75502 9.25992 1.27502 8.96742 0.982517Z" fill="#414141"/>
</svg>
